<svg width="256" height="256" viewBox="0 0 256 256" fill="none" xmlns="http://www.w3.org/2000/svg">
<path d="M128 0C57.4185 0 0 57.4185 0 128C0 198.581 57.4185 256 128 256C198.581 256 256 198.581 256 128C256 57.4185 198.581 0 128 0ZM167.542 135.542L114.208 188.874C112.128 190.954 109.397 192 106.666 192C103.936 192 101.205 190.954 99.125 188.874C94.9545 184.704 94.9545 177.963 99.125 173.792L144.917 128L99.1255 82.208C94.955 78.0375 94.955 71.296 99.1255 67.1255C103.296 62.955 110.038 62.955 114.208 67.1255L167.542 120.459C171.712 124.629 171.712 131.371 167.542 135.542Z" fill="#006DB9"/>
</svg>
