<?xml version="1.0" encoding="utf-8"?>
<!-- Generator: Adobe Illustrator 16.0.0, SVG Export Plug-In . SVG Version: 6.00 Build 0)  -->
<!DOCTYPE svg PUBLIC "-//W3C//DTD SVG 1.1//EN" "http://www.w3.org/Graphics/SVG/1.1/DTD/svg11.dtd">
<svg version="1.1" id="Layer_1" xmlns="http://www.w3.org/2000/svg" xmlns:xlink="http://www.w3.org/1999/xlink" x="0px" y="0px"
	 width="135px" height="135px" viewBox="0 0 135 135" style="enable-background:new 0 0 135 135;" xml:space="preserve">
<style type="text/css">
<![CDATA[
	.st0{fill:#465652;}
	.st1{fill:#AAB9BA;}
	.st2{fill:#47C67B;}
	.st3{fill:#AAC8D1;}
	.st4{fill:none;stroke:#E83834;stroke-width:6;stroke-linecap:round;stroke-linejoin:round;stroke-miterlimit:10;}
	.st5{fill:#7BC67B;}
	.st6{fill:#7BC7FF;}
	.st7{fill:#7C34C1;}
	.st8{fill:#7C8D96;}
	.st9{fill:#AD2707;}
	.st10{fill:#ADB8BC;}
	.st11{fill:#107510;}
	.st12{fill:#7FE5D8;}
	.st13{fill:#AF4AD1;}
	.st14{fill:#E02B7E;}
	.st15{fill:#E04038;}
	.st16{fill:#AFD7DD;}
	.st17{fill:#E0A010;}
	.st18{fill:#E0D5A4;}
	.st19{fill:#12B2B2;}
	.st20{fill:#12D66B;}
	.st21{fill:#E1A9FF;}
	.st22{fill:#1362A8;}
	.st23{fill:#E2378D;}
	.st24{fill:#E29C37;}
	.st25{fill:#E2B90E;}
	.st26{fill:#E2BF91;}
	.st27{fill:#E2CBAA;}
	.st28{fill:#14A594;}
	.st29{fill:#E4E9ED;}
	.st30{fill:#4A5D60;}
	.st31{fill:#E5B076;}
	.st32{fill:#E5B1C4;}
	.st33{fill:#E5E4C3;}
	.st34{fill:#4B6466;}
	.st35{fill:#E6FF2E;}
	.st36{fill:#18AA67;}
	.st37{fill:#E86207;}
	.st38{fill:#E8A113;}
	.st39{fill:#E8B5A6;}
	.st40{fill:#E8E8ED;}
	.st41{fill:#4E5154;}
	.st42{fill:#E9F1F4;}
	.st43{fill:#4F4B48;}
	.st44{fill:#4F74E8;}
	.st45{fill:#808E93;}
	.st46{fill:#80949B;}
	.st47{fill:#80EDAC;}
	.st48{fill:#B122E0;}
	.st49{fill:#B2C4CC;}
	.st50{fill:#83D839;}
	.st51{fill:#B3C6C6;}
	.st52{fill:none;stroke:#33363A;stroke-width:3;stroke-linecap:round;stroke-linejoin:round;stroke-miterlimit:10;}
	.st53{fill:#1A8E1C;}
	.st54{fill:#1A93D6;}
	.st55{fill:#B50B0B;}
	.st56{fill:#1AD88F;}
	.st57{fill:#B5DAF4;}
	.st58{fill:#EA7B1F;}
	.st59{fill:#EA81BD;}
	.st60{fill:#87B8D6;}
	.st61{fill:#87C3F4;}
	.st62{fill:#EAC79D;}
	.st63{fill:#EADF11;}
	.st64{fill:#EAE4C5;}
	.st65{fill:#B78094;}
	.st66{fill:#8844D8;}
	.st67{fill:#EBF4F7;}
	.st68{fill:#893015;}
	.st69{fill:#89410B;}
	.st70{fill:#899BA3;}
	.st71{fill:#EDE3B9;}
	.st72{enable-background:new    ;}
	.st73{fill:#50FF9F;}
	.st74{fill:#EEDCF4;}
	.st75{fill:#EFA37D;}
	.st76{fill:#EFA3CC;}
	.st77{fill:#EFC99A;}
	.st78{fill:#54AF79;}
	.st79{fill:#BA503A;}
	.st80{fill:#BA8663;}
	.st81{fill:#8B4FE0;}
	.st82{fill:#58ED9B;}
	.st83{fill:#BC7DFF;}
	.st84{fill:#8D9AA3;}
	.st85{fill:#BCCAD3;}
	.st86{fill:#8DE4FF;}
	.st87{fill:#20B518;}
	.st88{fill:#BF44F2;}
	.st89{fill:#21CEA1;}
	.st90{fill:#BFDAE0;}
	.st91{fill:#F0FBFC;}
	.st92{fill:#F2D9A7;}
	.st93{fill:#F2EAC9;}
	.st94{fill:#24D1AF;}
	.st95{fill:#25931C;}
	.st96{fill:#F4C4B3;}
	.st97{fill:#F4D3A2;}
	.st98{fill:#F4D647;}
	.st99{fill:#F4D7B8;}
	.st100{fill:#F4EC8E;}
	.st101{fill:#5B524D;}
	.st102{fill:#F77819;}
	.st103{fill:#F79AE1;}
	.st104{fill:#5E707A;}
	.st105{fill:#F93585;}
	.st106{fill:#F95D5D;}
	.st107{fill:#F9C19B;}
	.st108{fill:#F9CB58;}
	.st109{fill:#F9D2B2;}
	.st110{fill:#F9F07D;}
	.st111{fill:#F9F1D2;}
	.st112{fill:#F9F4B7;}
	.st113{fill:#F9F9E4;}
	.st114{fill:#5F1DAA;}
	.st115{fill:#5F9AD6;}
	.st116{fill:#C0C0C4;}
	.st117{fill:#91EA57;}
	.st118{fill:#C12727;}
	.st119{fill:#C191A0;}
	.st120{fill:#923BB7;}
	.st121{fill:#93A0A3;}
	.st122{fill:#93F9EA;}
	.st123{fill:#93FF5A;}
	.st124{fill:#C4833D;}
	.st125{fill:#95A2A5;}
	.st126{fill:#965514;}
	.st127{fill:#96562C;}
	.st128{fill:#2AF42F;}
	.st129{fill:#C5D7DD;}
	.st130{fill:#C68510;}
	.st131{fill:#C6A86D;}
	.st132{fill:#C6BB8D;}
	.st133{fill:#2C9DCE;}
	.st134{fill:#FBFCF2;}
	.st135{fill:#FC70B0;}
	.st136{fill:#FCE6C8;}
	.st137{fill:#FCF7E3;}
	.st138{fill:#C90D6B;}
	.st139{fill:#FDFEFF;}
	.st140{fill:#FDFFDC;}
	.st141{fill:#FF1A1A;}
	.st142{fill:#FF5252;}
	.st143{fill:#FF5B00;}
	.st144{fill:#FF6155;}
	.st145{fill:#FF630D;}
	.st146{fill:#FF6666;}
	.st147{fill:#FF7676;}
	.st148{fill:#FF7900;}
	.st149{fill:#FF860D;}
	.st150{fill:#FF8B00;}
	.st151{fill:#FF8F8F;}
	.st152{fill:#FF900B;}
	.st153{fill:#FF908A;}
	.st154{fill:#FF960B;}
	.st155{fill:#FF9C0D;}
	.st156{fill:#FFA9D4;}
	.st157{fill:#FFAA00;}
	.st158{fill:#FFAD40;}
	.st159{fill:#FFAF10;}
	.st160{fill:#FFB000;}
	.st161{fill:#FFBE08;}
	.st162{fill:#FFBF31;}
	.st163{fill:#FFC200;}
	.st164{fill:#FFCAE8;}
	.st165{fill:#FFCCF5;}
	.st166{fill:#FFD00B;}
	.st167{fill:#FFD039;}
	.st168{fill:#FFD400;}
	.st169{fill:#FFD833;}
	.st170{fill:#FFDB80;}
	.st171{fill:#FFDDD2;}
	.st172{fill:#FFE6D4;}
	.st173{fill:#FFE6EB;}
	.st174{fill:#FFE98D;}
	.st175{fill:#FFECD2;}
	.st176{fill:#FFF1D9;}
	.st177{fill:#FFF24D;}
	.st178{fill:#FFF3C2;}
	.st179{fill:#FFF4C7;}
	.st180{fill:#FFF800;}
	.st181{fill:#FFF80D;}
	.st182{fill:#FFF9DE;}
	.st183{fill:#FFFBD7;}
	.st184{fill:#FFFBEB;}
	.st185{fill:#FFFCC0;}
	.st186{fill:#FFFCDC;}
	.st187{fill:#FFFFFA;}
	.st188{fill:#FFFFFF;}
	.st189{fill:#63797F;}
	.st190{fill:#65E529;}
	.st191{fill:#66310E;}
	.st192{fill:#663C17;}
	.st193{fill:#9A5AE5;}
	.st194{fill:#CA30EF;}
	.st195{fill:#6892FC;}
	.st196{fill:#9CFFC4;}
	.st197{fill:#CC4306;}
	.st198{fill:#CC549E;}
	.st199{fill:#9E3256;}
	.st200{fill:#CDFFBB;}
	.st201{fill:#CE86AF;}
	.st202{fill:#CED9DD;}
	
		.st203{fill:none;stroke:#33363A;stroke-width:3;stroke-linecap:round;stroke-linejoin:round;stroke-miterlimit:10;stroke-dasharray:6;}
	.st204{fill:#CFE1E2;}
	.st205{fill:#33363A;}
	.st206{fill:#34C166;}
	.st207{fill:#364B5B;}
	.st208{fill:#3662CE;}
	.st209{fill:#36C6FF;}
	.st210{fill:#6ADB9A;}
	.st211{fill:#6D5C4D;}
	.st212{fill:#6EBDF9;}
	.st213{fill:#0031FF;}
	.st214{fill:#0062FF;}
	.st215{fill:#0068FF;}
	.st216{fill:#0086FF;}
	.st217{fill:#009BE8;}
	.st218{fill:#00AAFF;}
	.st219{fill:#D271FF;}
	.st220{fill:#D363A9;}
	.st221{fill:#D3964C;}
	.st222{fill:#D3DFE2;}
	.st223{fill:#D3E0E2;}
	.st224{fill:#D3EFF4;}
	.st225{fill:#063B66;}
	.st226{fill:#D60909;}
	.st227{fill:#D61D1D;}
	.st228{fill:#D7F0FF;}
	.st229{fill:#09B285;}
	.st230{fill:#D8D593;}
	.st231{fill:#D8E2EA;}
	.st232{fill:#D8E5EA;}
	.st233{fill:#3E5054;}
	.st234{fill:#D988FF;}
	.st235{fill:#D9E7E8;}
	.st236{fill:#702252;}
	.st237{fill:#70D3E0;}
	.st238{fill:#A02FF2;}
	.st239{fill:#A2F255;}
	.st240{fill:#A35616;}
	.st241{fill:#A3CCCC;}
	.st242{fill:#0A6ADD;}
	.st243{fill:#A5145D;}
	.st244{fill:#A57555;}
	.st245{fill:#77D6FC;}
	.st246{fill:#7815CE;}
	.st247{fill:#A7BBC1;}
	.st248{fill:#DBD279;}
	.st249{fill:#0D5C9E;}
	.st250{fill:#A83C11;}
	.st251{fill:#A8633D;}
	.st252{fill:#A8A3E5;}
	.st253{fill:#DCE6EA;}
	.st254{fill:#DCE7EA;}
	.st255{fill:#A962E8;}
	.st256{fill:#DD2466;}
	.st257{fill:#DDC38A;}
	.st258{fill:#DDD2B1;}
	.st259{fill:#DFE7E8;}
	.st260{fill:#42B1E8;}
	.st261{fill:#436377;}
	.st262{fill:#43B530;}
]]>
</style>
<g>
	<g>
		<g>
			<path class="st205" d="M67.5,26.864c-1.657,0-3-1.343-3-3V6.528c0-1.657,1.343-3,3-3s3,1.343,3,3v17.336
				C70.5,25.521,69.157,26.864,67.5,26.864z"/>
		</g>
		<g>
			<g>
				<path class="st205" d="M64.322,29.829c-0.969,0-1.919-0.468-2.497-1.333L52.189,14.08c-0.921-1.377-0.551-3.24,0.827-4.161
					c1.377-0.922,3.241-0.55,4.161,0.827l9.636,14.416c0.921,1.377,0.551,3.24-0.827,4.161
					C65.475,29.666,64.896,29.829,64.322,29.829z"/>
			</g>
			<g>
				<path class="st205" d="M70.678,29.829c-0.573,0-1.152-0.163-1.664-0.506c-1.378-0.921-1.748-2.784-0.827-4.161l9.636-14.416
					c0.92-1.377,2.784-1.749,4.161-0.827c1.378,0.921,1.748,2.784,0.827,4.161l-9.636,14.416
					C72.597,29.361,71.646,29.829,70.678,29.829z"/>
			</g>
		</g>
	</g>
	<g>
		<g>
			<g>
				<g>
					<path class="st180" d="M116.709,73.038c0,20.676-22.032,37.441-49.209,37.441c-27.178,0-49.209-16.766-49.209-37.441
						c0-20.68,22.031-45.459,49.209-45.459C94.677,27.579,116.709,52.358,116.709,73.038z"/>
				</g>
				<g>
					<path class="st168" d="M116.709,73.038c0,20.676-22.032,37.441-49.209,37.441c-27.178,0-49.209-16.766-49.209-37.441
						c0-20.68,22.031-34.928,49.209-34.928C94.677,38.11,116.709,52.358,116.709,73.038z"/>
				</g>
				<g>
					<path class="st180" d="M77.979,61.896c0,1.395-4.691,1.645-10.479,1.645s-10.479-0.25-10.479-1.645
						c0-1.393,4.691-5.035,10.479-5.035S77.979,60.503,77.979,61.896z"/>
				</g>
				<g>
					<path class="st160" d="M116.709,73.038c0,20.676-22.032,37.441-49.209,37.441c-27.178,0-49.209-16.766-49.209-37.441
						c0-20.682,6.261,18.34,49.209,18.34S116.709,52.356,116.709,73.038z"/>
				</g>
				<g>
					<path class="st205" d="M67.5,111.979c-27.961,0-50.709-17.469-50.709-38.941c0-21.27,22.619-46.959,50.709-46.959
						c13.041,0,25.772,5.472,35.849,15.406c9.305,9.174,14.86,20.97,14.86,31.553C118.209,94.511,95.461,111.979,67.5,111.979z
						 M67.5,29.079c-26.428,0-47.709,24.048-47.709,43.959c0,19.818,21.402,35.941,47.709,35.941s47.709-16.123,47.709-35.941
						C115.209,53.127,93.928,29.079,67.5,29.079z"/>
				</g>
			</g>
			<g>
				<g>
					<g>
						<g>
							<g>
								<path class="st205" d="M51.338,64.351c-0.828,0-1.5-0.672-1.5-1.5c0-0.87-2.487-2.469-6.552-2.469
									c-4.063,0-6.551,1.599-6.551,2.469c0,0.828-0.672,1.5-1.5,1.5s-1.5-0.672-1.5-1.5c0-3.118,4.105-5.469,9.551-5.469
									s9.552,2.351,9.552,5.469C52.838,63.679,52.166,64.351,51.338,64.351z"/>
							</g>
						</g>
					</g>
					<g>
						<g>
							<g>
								<path class="st205" d="M99.765,64.351c-0.828,0-1.5-0.672-1.5-1.5c0-0.87-2.487-2.469-6.551-2.469
									c-4.064,0-6.552,1.599-6.552,2.469c0,0.828-0.672,1.5-1.5,1.5s-1.5-0.672-1.5-1.5c0-3.118,4.106-5.469,9.552-5.469
									s9.551,2.351,9.551,5.469C101.265,63.679,100.593,64.351,99.765,64.351z"/>
							</g>
						</g>
					</g>
				</g>
			</g>
		</g>
	</g>
	<g>
		<path class="st179" d="M106.914,105.286c0-12.697-11.573-16.83-20.176-23.713C72.346,69.19,77.075,61.3,68.098,60.685v-0.043
			c-0.209,0-0.401,0.008-0.598,0.014c-0.196-0.006-0.389-0.014-0.598-0.014v0.043c-8.978,0.615-4.248,8.506-18.641,20.889
			c-8.603,6.883-20.176,11.016-20.176,23.713c0,20.506,20.319,22.297,38.816,23.145v0.041c0.198,0,0.398-0.016,0.598-0.02
			c0.199,0.004,0.399,0.02,0.598,0.02v-0.041C86.595,127.583,106.914,125.792,106.914,105.286z"/>
	</g>
	<g>
		<path class="st18" d="M106.329,105.442c-2.446-11.707-12.133-12.502-19.591-18.469c-14.393-12.383-9.663-20.271-18.641-20.889
			v-0.043c-0.209,0-0.401,0.01-0.598,0.016c-0.196-0.006-0.389-0.016-0.598-0.016v0.043c-8.978,0.617-4.248,8.506-18.641,20.889
			c-7.458,5.967-17.145,6.762-19.591,18.469c3.435,15.287,21.568,16.822,38.231,17.588v0.041c0.198,0,0.398-0.016,0.598-0.021
			c0.199,0.006,0.399,0.021,0.598,0.021v-0.041C84.761,122.265,102.895,120.729,106.329,105.442z"/>
	</g>
	<g>
		<path class="st205" d="M68.098,129.972c-0.136,0-0.271-0.006-0.408-0.012l-0.219-0.008l-0.16,0.008
			c-0.282,0.013-0.568,0.027-0.824-0.047c-16.027-0.735-39.9-1.992-39.9-24.627c0-10.637,7.495-15.701,14.743-20.599
			c2.02-1.364,4.107-2.774,5.995-4.285c6.861-5.905,9.193-10.729,10.896-14.253c1.74-3.601,3.123-6.462,8.226-6.933
			c0.31-0.104,0.664-0.075,0.984-0.064l0.114,0.004l0.024-0.004c0.327-0.011,0.688-0.038,1.003,0.065
			c5.087,0.477,6.469,3.335,8.207,6.932c1.703,3.523,4.035,8.348,10.938,14.287c1.847,1.477,3.935,2.887,5.954,4.251
			c7.248,4.897,14.743,9.962,14.743,20.599c0,22.64-23.886,23.892-39.913,24.628C68.373,129.951,68.237,129.972,68.098,129.972z
			 M67.471,126.952l0.321,0.01c0.077-0.016,0.156-0.026,0.237-0.029c20.454-0.938,37.385-3.214,37.385-21.646
			c0-9.043-6.52-13.448-13.423-18.112c-2.068-1.397-4.207-2.843-6.19-4.43c-7.416-6.379-10.008-11.741-11.723-15.289
			c-1.717-3.553-2.428-5.023-6.083-5.274c-0.078-0.005-0.154-0.017-0.229-0.033c-0.033,0.001-0.066,0.002-0.101,0.003l-0.12,0.004
			l-0.21-0.004c-0.035-0.001-0.07-0.002-0.105-0.003c-0.073,0.017-0.147,0.028-0.225,0.033c-3.655,0.251-4.366,1.722-6.083,5.274
			c-1.715,3.548-4.307,8.91-11.682,15.255c-2.024,1.621-4.163,3.066-6.231,4.464c-6.903,4.664-13.423,9.069-13.423,18.112
			c0,18.433,16.931,20.709,37.385,21.646c0.081,0.003,0.16,0.014,0.237,0.029L67.471,126.952z"/>
	</g>
	<g>
		<g>
			<path class="st205" d="M63.355,79.741c-0.573,0-1.12-0.33-1.37-0.887l-1.102-2.457c-0.339-0.756,0-1.644,0.756-1.982
				c0.755-0.338,1.643,0,1.982,0.756l1.102,2.457c0.339,0.756,0,1.644-0.756,1.982C63.769,79.699,63.561,79.741,63.355,79.741z"/>
		</g>
		<g>
			<path class="st205" d="M71.645,79.741c-0.205,0-0.413-0.042-0.612-0.131c-0.756-0.339-1.095-1.227-0.756-1.982l1.102-2.457
				c0.34-0.756,1.227-1.093,1.982-0.756c0.756,0.339,1.095,1.227,0.756,1.982l-1.102,2.457
				C72.765,79.411,72.218,79.741,71.645,79.741z"/>
		</g>
	</g>
</g>
</svg>
