<?xml version="1.0" encoding="utf-8"?>
<!-- Generator: Adobe Illustrator 16.0.0, SVG Export Plug-In . SVG Version: 6.00 Build 0)  -->
<!DOCTYPE svg PUBLIC "-//W3C//DTD SVG 1.1//EN" "http://www.w3.org/Graphics/SVG/1.1/DTD/svg11.dtd">
<svg version="1.1" id="Layer_1" xmlns="http://www.w3.org/2000/svg" xmlns:xlink="http://www.w3.org/1999/xlink" x="0px" y="0px"
	 width="135px" height="135px" viewBox="0 0 135 135" style="enable-background:new 0 0 135 135;" xml:space="preserve">
<style type="text/css">
<![CDATA[
	.st0{fill:#465652;}
	.st1{fill:#AAB9BA;}
	.st2{fill:#47C67B;}
	.st3{fill:#AAC8D1;}
	.st4{fill:none;stroke:#E83834;stroke-width:6;stroke-linecap:round;stroke-linejoin:round;stroke-miterlimit:10;}
	.st5{fill:#7BC67B;}
	.st6{fill:#7BC7FF;}
	.st7{fill:#7C34C1;}
	.st8{fill:#7C8D96;}
	.st9{fill:#AD2707;}
	.st10{fill:#ADB8BC;}
	.st11{fill:#107510;}
	.st12{fill:#7FE5D8;}
	.st13{fill:#AF4AD1;}
	.st14{fill:#E02B7E;}
	.st15{fill:#E04038;}
	.st16{fill:#AFD7DD;}
	.st17{fill:#E0A010;}
	.st18{fill:#E0D5A4;}
	.st19{fill:#12B2B2;}
	.st20{fill:#12D66B;}
	.st21{fill:#E1A9FF;}
	.st22{fill:#1362A8;}
	.st23{fill:#E2378D;}
	.st24{fill:#E29C37;}
	.st25{fill:#E2B90E;}
	.st26{fill:#E2BF91;}
	.st27{fill:#E2CBAA;}
	.st28{fill:#14A594;}
	.st29{fill:#E4E9ED;}
	.st30{fill:#4A5D60;}
	.st31{fill:#E5B076;}
	.st32{fill:#E5B1C4;}
	.st33{fill:#E5E4C3;}
	.st34{fill:#4B6466;}
	.st35{fill:#E6FF2E;}
	.st36{fill:#18AA67;}
	.st37{fill:#E86207;}
	.st38{fill:#E8A113;}
	.st39{fill:#E8B5A6;}
	.st40{fill:#E8E8ED;}
	.st41{fill:#4E5154;}
	.st42{fill:#E9F1F4;}
	.st43{fill:#4F4B48;}
	.st44{fill:#4F74E8;}
	.st45{fill:#808E93;}
	.st46{fill:#80949B;}
	.st47{fill:#80EDAC;}
	.st48{fill:#B122E0;}
	.st49{fill:#B2C4CC;}
	.st50{fill:#83D839;}
	.st51{fill:#B3C6C6;}
	.st52{fill:none;stroke:#33363A;stroke-width:3;stroke-linecap:round;stroke-linejoin:round;stroke-miterlimit:10;}
	.st53{fill:#1A8E1C;}
	.st54{fill:#1A93D6;}
	.st55{fill:#B50B0B;}
	.st56{fill:#1AD88F;}
	.st57{fill:#B5DAF4;}
	.st58{fill:#EA7B1F;}
	.st59{fill:#EA81BD;}
	.st60{fill:#87B8D6;}
	.st61{fill:#87C3F4;}
	.st62{fill:#EAC79D;}
	.st63{fill:#EADF11;}
	.st64{fill:#EAE4C5;}
	.st65{fill:#B78094;}
	.st66{fill:#8844D8;}
	.st67{fill:#EBF4F7;}
	.st68{fill:#893015;}
	.st69{fill:#89410B;}
	.st70{fill:#899BA3;}
	.st71{fill:#EDE3B9;}
	.st72{enable-background:new    ;}
	.st73{fill:#50FF9F;}
	.st74{fill:#EEDCF4;}
	.st75{fill:#EFA37D;}
	.st76{fill:#EFA3CC;}
	.st77{fill:#EFC99A;}
	.st78{fill:#54AF79;}
	.st79{fill:#BA503A;}
	.st80{fill:#BA8663;}
	.st81{fill:#8B4FE0;}
	.st82{fill:#58ED9B;}
	.st83{fill:#BC7DFF;}
	.st84{fill:#8D9AA3;}
	.st85{fill:#BCCAD3;}
	.st86{fill:#8DE4FF;}
	.st87{fill:#20B518;}
	.st88{fill:#BF44F2;}
	.st89{fill:#21CEA1;}
	.st90{fill:#BFDAE0;}
	.st91{fill:#F0FBFC;}
	.st92{fill:#F2D9A7;}
	.st93{fill:#F2EAC9;}
	.st94{fill:#24D1AF;}
	.st95{fill:#25931C;}
	.st96{fill:#F4C4B3;}
	.st97{fill:#F4D3A2;}
	.st98{fill:#F4D647;}
	.st99{fill:#F4D7B8;}
	.st100{fill:#F4EC8E;}
	.st101{fill:#5B524D;}
	.st102{fill:#F77819;}
	.st103{fill:#F79AE1;}
	.st104{fill:#5E707A;}
	.st105{fill:#F93585;}
	.st106{fill:#F95D5D;}
	.st107{fill:#F9C19B;}
	.st108{fill:#F9CB58;}
	.st109{fill:#F9D2B2;}
	.st110{fill:#F9F07D;}
	.st111{fill:#F9F1D2;}
	.st112{fill:#F9F4B7;}
	.st113{fill:#F9F9E4;}
	.st114{fill:#5F1DAA;}
	.st115{fill:#5F9AD6;}
	.st116{fill:#C0C0C4;}
	.st117{fill:#91EA57;}
	.st118{fill:#C12727;}
	.st119{fill:#C191A0;}
	.st120{fill:#923BB7;}
	.st121{fill:#93A0A3;}
	.st122{fill:#93F9EA;}
	.st123{fill:#93FF5A;}
	.st124{fill:#C4833D;}
	.st125{fill:#95A2A5;}
	.st126{fill:#965514;}
	.st127{fill:#96562C;}
	.st128{fill:#2AF42F;}
	.st129{fill:#C5D7DD;}
	.st130{fill:#C68510;}
	.st131{fill:#C6A86D;}
	.st132{fill:#C6BB8D;}
	.st133{fill:#2C9DCE;}
	.st134{fill:#FBFCF2;}
	.st135{fill:#FC70B0;}
	.st136{fill:#FCE6C8;}
	.st137{fill:#FCF7E3;}
	.st138{fill:#C90D6B;}
	.st139{fill:#FDFEFF;}
	.st140{fill:#FDFFDC;}
	.st141{fill:#FF1A1A;}
	.st142{fill:#FF5252;}
	.st143{fill:#FF5B00;}
	.st144{fill:#FF6155;}
	.st145{fill:#FF630D;}
	.st146{fill:#FF6666;}
	.st147{fill:#FF7676;}
	.st148{fill:#FF7900;}
	.st149{fill:#FF860D;}
	.st150{fill:#FF8B00;}
	.st151{fill:#FF8F8F;}
	.st152{fill:#FF900B;}
	.st153{fill:#FF908A;}
	.st154{fill:#FF960B;}
	.st155{fill:#FF9C0D;}
	.st156{fill:#FFA9D4;}
	.st157{fill:#FFAA00;}
	.st158{fill:#FFAD40;}
	.st159{fill:#FFAF10;}
	.st160{fill:#FFB000;}
	.st161{fill:#FFBE08;}
	.st162{fill:#FFBF31;}
	.st163{fill:#FFC200;}
	.st164{fill:#FFCAE8;}
	.st165{fill:#FFCCF5;}
	.st166{fill:#FFD00B;}
	.st167{fill:#FFD039;}
	.st168{fill:#FFD400;}
	.st169{fill:#FFD833;}
	.st170{fill:#FFDB80;}
	.st171{fill:#FFDDD2;}
	.st172{fill:#FFE6D4;}
	.st173{fill:#FFE6EB;}
	.st174{fill:#FFE98D;}
	.st175{fill:#FFECD2;}
	.st176{fill:#FFF1D9;}
	.st177{fill:#FFF24D;}
	.st178{fill:#FFF3C2;}
	.st179{fill:#FFF4C7;}
	.st180{fill:#FFF800;}
	.st181{fill:#FFF80D;}
	.st182{fill:#FFF9DE;}
	.st183{fill:#FFFBD7;}
	.st184{fill:#FFFBEB;}
	.st185{fill:#FFFCC0;}
	.st186{fill:#FFFCDC;}
	.st187{fill:#FFFFFA;}
	.st188{fill:#FFFFFF;}
	.st189{fill:#63797F;}
	.st190{fill:#65E529;}
	.st191{fill:#66310E;}
	.st192{fill:#663C17;}
	.st193{fill:#9A5AE5;}
	.st194{fill:#CA30EF;}
	.st195{fill:#6892FC;}
	.st196{fill:#9CFFC4;}
	.st197{fill:#CC4306;}
	.st198{fill:#CC549E;}
	.st199{fill:#9E3256;}
	.st200{fill:#CDFFBB;}
	.st201{fill:#CE86AF;}
	.st202{fill:#CED9DD;}
	
		.st203{fill:none;stroke:#33363A;stroke-width:3;stroke-linecap:round;stroke-linejoin:round;stroke-miterlimit:10;stroke-dasharray:6;}
	.st204{fill:#CFE1E2;}
	.st205{fill:#33363A;}
	.st206{fill:#34C166;}
	.st207{fill:#364B5B;}
	.st208{fill:#3662CE;}
	.st209{fill:#36C6FF;}
	.st210{fill:#6ADB9A;}
	.st211{fill:#6D5C4D;}
	.st212{fill:#6EBDF9;}
	.st213{fill:#0031FF;}
	.st214{fill:#0062FF;}
	.st215{fill:#0068FF;}
	.st216{fill:#0086FF;}
	.st217{fill:#009BE8;}
	.st218{fill:#00AAFF;}
	.st219{fill:#D271FF;}
	.st220{fill:#D363A9;}
	.st221{fill:#D3964C;}
	.st222{fill:#D3DFE2;}
	.st223{fill:#D3E0E2;}
	.st224{fill:#D3EFF4;}
	.st225{fill:#063B66;}
	.st226{fill:#D60909;}
	.st227{fill:#D61D1D;}
	.st228{fill:#D7F0FF;}
	.st229{fill:#09B285;}
	.st230{fill:#D8D593;}
	.st231{fill:#D8E2EA;}
	.st232{fill:#D8E5EA;}
	.st233{fill:#3E5054;}
	.st234{fill:#D988FF;}
	.st235{fill:#D9E7E8;}
	.st236{fill:#702252;}
	.st237{fill:#70D3E0;}
	.st238{fill:#A02FF2;}
	.st239{fill:#A2F255;}
	.st240{fill:#A35616;}
	.st241{fill:#A3CCCC;}
	.st242{fill:#0A6ADD;}
	.st243{fill:#A5145D;}
	.st244{fill:#A57555;}
	.st245{fill:#77D6FC;}
	.st246{fill:#7815CE;}
	.st247{fill:#A7BBC1;}
	.st248{fill:#DBD279;}
	.st249{fill:#0D5C9E;}
	.st250{fill:#A83C11;}
	.st251{fill:#A8633D;}
	.st252{fill:#A8A3E5;}
	.st253{fill:#DCE6EA;}
	.st254{fill:#DCE7EA;}
	.st255{fill:#A962E8;}
	.st256{fill:#DD2466;}
	.st257{fill:#DDC38A;}
	.st258{fill:#DDD2B1;}
	.st259{fill:#DFE7E8;}
	.st260{fill:#42B1E8;}
	.st261{fill:#436377;}
	.st262{fill:#43B530;}
]]>
</style>
<g>
	<g>
		<path class="st175" d="M118.76,94.868c0,16.236-22.949,34.932-51.26,34.932s-51.26-18.695-51.26-34.932
			c0-16.238,22.949-29.402,51.26-29.402S118.76,78.63,118.76,94.868z"/>
	</g>
	<g>
		<path class="st77" d="M118.76,94.868c0,16.236-22.949,29.266-51.26,29.266s-51.26-13.029-51.26-29.266
			c0-16.238,22.949-29.402,51.26-29.402S118.76,78.63,118.76,94.868z"/>
	</g>
	<g>
		<path class="st205" d="M67.5,131.3c-29.713,0-52.76-19.584-52.76-36.432c0-17.04,23.668-30.902,52.76-30.902
			s52.76,13.862,52.76,30.902C120.26,111.716,97.213,131.3,67.5,131.3z M67.5,66.966c-27.438,0-49.76,12.517-49.76,27.902
			c0,18.519,27.222,33.432,49.76,33.432s49.76-14.913,49.76-33.432C117.26,79.482,94.938,66.966,67.5,66.966z"/>
	</g>
	<g>
		<g>
			<g>
				<g>
					<g>
						<path class="st31" d="M116.709,83.312c0,20.676-22.031,37.441-49.209,37.441s-49.209-16.766-49.209-37.441
							c0-20.68,22.031-45.459,49.209-45.459S116.709,62.632,116.709,83.312z"/>
					</g>
					<g>
						<path class="st221" d="M116.709,83.312c0,20.676-22.031,37.441-49.209,37.441s-49.209-16.766-49.209-37.441
							c0-20.68,22.031-34.928,49.209-34.928S116.709,62.632,116.709,83.312z"/>
					</g>
					<g>
						<path class="st31" d="M77.979,87.269c0,1.393-4.691,1.643-10.478,1.643c-5.787,0-10.479-0.25-10.479-1.643
							c0-1.395,4.691-5.037,10.479-5.037C73.287,82.231,77.979,85.874,77.979,87.269z"/>
					</g>
					<g>
						<path class="st124" d="M116.709,83.312c0,20.676-22.031,37.441-49.209,37.441s-49.209-16.766-49.209-37.441
							c0-20.682,6.262,18.34,49.209,18.34S116.709,62.63,116.709,83.312z"/>
					</g>
					<g>
						<path class="st205" d="M67.5,122.253c-27.961,0-50.709-17.469-50.709-38.941c0-21.27,22.619-46.959,50.709-46.959
							c13.041,0,25.772,5.472,35.85,15.406c9.305,9.174,14.859,20.97,14.859,31.553C118.209,104.784,95.461,122.253,67.5,122.253z
							 M67.5,39.353c-26.428,0-47.709,24.048-47.709,43.959c0,19.818,21.402,35.941,47.709,35.941s47.709-16.123,47.709-35.941
							C115.209,63.4,93.928,39.353,67.5,39.353z"/>
					</g>
				</g>
				<g>
					<g>
						<g>
							<g>
								<g>
									<g>
										<path class="st221" d="M24.811,37.731c-0.124,12.322,4.217,22.303,11.009,27.771c6.933-8.355,11.495-20.207,11.619-32.531
											c0.125-12.324-4.217-22.305-11.01-27.771C29.498,13.554,24.935,25.407,24.811,37.731z"/>
									</g>
									<g>
										<path class="st124" d="M36.429,5.2c-6.931,8.354-11.494,20.207-11.618,32.531c-0.124,12.322,4.217,22.303,11.009,27.771
											L36.429,5.2z"/>
									</g>
									<g>
										<path class="st205" d="M30.1,60.405c-0.503,0-0.995-0.254-1.278-0.714c-3.69-6-5.596-13.599-5.511-21.976
											c0.123-12.257,4.484-24.458,11.964-33.474c0.521-0.631,1.454-0.725,2.095-0.211c7.479,6.019,11.695,16.572,11.569,28.956
											c-0.075,7.312-1.688,14.76-4.665,21.537c-0.333,0.757-1.219,1.104-1.977,0.77c-0.758-0.333-1.103-1.218-0.77-1.977
											c2.815-6.409,4.341-13.45,4.411-20.361c0.109-10.797-3.267-20.025-9.311-25.604c-6.463,8.362-10.206,19.348-10.317,30.395
											c-0.079,7.811,1.672,14.855,5.065,20.373c0.435,0.706,0.214,1.63-0.491,2.063C30.64,60.334,30.368,60.405,30.1,60.405z"/>
									</g>
								</g>
							</g>
						</g>
						<g>
							<g>
								<g>
									<g>
										<path class="st191" d="M30.619,43.81c-0.059,5.826,1.994,10.541,5.204,13.127c3.276-3.949,5.433-9.551,5.491-15.375
											c0.06-5.826-1.992-10.543-5.203-13.127C32.835,32.384,30.678,37.985,30.619,43.81z"/>
									</g>
									<g>
										<path class="st69" d="M36.111,28.435c-3.276,3.949-5.434,9.551-5.492,15.375c-0.059,5.826,1.994,10.541,5.204,13.127
											L36.111,28.435z"/>
									</g>
									<g>
										<path class="st205" d="M35.822,58.437c-0.33,0-0.663-0.108-0.94-0.332c-3.724-3-5.824-8.216-5.763-14.31
											c0.061-5.971,2.188-11.919,5.838-16.318c0.521-0.631,1.455-0.726,2.095-0.211c3.725,2.998,5.825,8.214,5.763,14.312
											c-0.061,5.971-2.188,11.919-5.837,16.317C36.682,58.252,36.254,58.437,35.822,58.437z M36.291,30.667
											c-2.619,3.716-4.124,8.424-4.172,13.157c-0.045,4.413,1.253,8.354,3.524,10.88c2.618-3.716,4.123-8.423,4.171-13.157
											C39.859,37.131,38.562,33.19,36.291,30.667z"/>
									</g>
								</g>
							</g>
						</g>
					</g>
					<g>
						<g>
							<g>
								<g>
									<g>
										<path class="st221" d="M110.189,37.731c0.124,12.322-4.217,22.303-11.009,27.771
											c-6.933-8.355-11.495-20.207-11.619-32.531C87.437,20.647,91.778,10.667,98.571,5.2
											C105.502,13.554,110.065,25.407,110.189,37.731z"/>
									</g>
									<g>
										<path class="st124" d="M98.571,5.2c6.931,8.354,11.494,20.207,11.618,32.531c0.124,12.322-4.217,22.303-11.009,27.771
											L98.571,5.2z"/>
									</g>
									<g>
										<path class="st205" d="M104.9,60.405c-0.269,0-0.54-0.071-0.785-0.223c-0.705-0.434-0.926-1.357-0.491-2.063
											c3.394-5.518,5.145-12.562,5.065-20.372c-0.111-11.048-3.854-22.033-10.317-30.396c-6.044,5.579-9.42,14.808-9.311,25.604
											c0.07,6.911,1.596,13.952,4.411,20.361c0.333,0.759-0.012,1.644-0.77,1.977c-0.758,0.336-1.644-0.012-1.977-0.77
											c-2.978-6.777-4.59-14.225-4.665-21.537C85.936,20.604,90.152,10.05,97.631,4.031c0.641-0.514,1.572-0.42,2.095,0.211
											c7.479,9.016,11.841,21.217,11.964,33.475c0.085,8.376-1.82,15.975-5.511,21.975
											C105.896,60.151,105.403,60.405,104.9,60.405z"/>
									</g>
								</g>
							</g>
						</g>
						<g>
							<g>
								<g>
									<g>
										<path class="st191" d="M104.381,43.81c0.059,5.826-1.994,10.541-5.204,13.127c-3.276-3.949-5.433-9.551-5.491-15.375
											c-0.06-5.826,1.992-10.543,5.203-13.127C102.165,32.384,104.322,37.985,104.381,43.81z"/>
									</g>
									<g>
										<path class="st69" d="M98.889,28.435c3.276,3.949,5.434,9.551,5.492,15.375c0.059,5.826-1.994,10.541-5.204,13.127
											L98.889,28.435z"/>
									</g>
									<g>
										<path class="st205" d="M99.178,58.437c-0.432,0-0.859-0.185-1.155-0.542c-3.649-4.398-5.776-10.347-5.837-16.318
											c-0.062-6.097,2.038-11.312,5.763-14.311c0.64-0.515,1.572-0.42,2.095,0.211c3.65,4.399,5.777,10.348,5.838,16.318
											c0.062,6.094-2.039,11.31-5.763,14.31C99.841,58.328,99.508,58.437,99.178,58.437z M98.709,30.667
											c-2.271,2.523-3.568,6.464-3.523,10.879c0.048,4.735,1.553,9.442,4.171,13.158c2.271-2.525,3.569-6.467,3.524-10.88
											C102.833,39.091,101.328,34.383,98.709,30.667z"/>
									</g>
								</g>
							</g>
						</g>
					</g>
				</g>
				<g>
					<g>
						<polygon class="st205" points="63.582,95.198 67.5,97.159 71.419,95.198 						"/>
						<path class="st205" d="M67.5,98.659c-0.23,0-0.46-0.053-0.671-0.158l-3.918-1.961c-0.622-0.312-0.949-1.01-0.789-1.687
							s0.765-1.155,1.46-1.155h7.837c0.695,0,1.3,0.479,1.46,1.155s-0.167,1.375-0.789,1.687l-3.919,1.961
							C67.96,98.606,67.73,98.659,67.5,98.659z"/>
					</g>
					<g>
						<g>
							<path class="st205" d="M63.41,105.354h-1.457c-3.082,0-5.59-2.508-5.59-5.59c0-0.828,0.672-1.5,1.5-1.5s1.5,0.672,1.5,1.5
								c0,1.428,1.162,2.59,2.59,2.59h1.457c1.428,0,2.59-1.162,2.59-2.59V98.31c0-0.828,0.672-1.5,1.5-1.5s1.5,0.672,1.5,1.5v1.455
								C69,102.847,66.492,105.354,63.41,105.354z"/>
						</g>
						<g>
							<path class="st205" d="M73.047,105.354H71.59c-3.082,0-5.59-2.508-5.59-5.59V98.31c0-0.828,0.672-1.5,1.5-1.5
								s1.5,0.672,1.5,1.5v1.455c0,1.428,1.162,2.59,2.59,2.59h1.457c1.428,0,2.59-1.162,2.59-2.59c0-0.828,0.672-1.5,1.5-1.5
								s1.5,0.672,1.5,1.5C78.637,102.847,76.129,105.354,73.047,105.354z"/>
						</g>
					</g>
					<g>
						<g>
							<g>
								<g>
									<path class="st69" d="M51.338,88.128c0,4.449-3.605,8.051-8.053,8.051c-4.445,0-8.051-3.602-8.051-8.051
										c0-4.447,3.605-8.051,8.051-8.051C47.732,80.077,51.338,83.681,51.338,88.128z"/>
								</g>
								<g>
									<path class="st205" d="M51.338,88.128c0,4.449-3.605,1.664-8.053,1.664c-4.445,0-8.051,2.785-8.051-1.664
										c0-4.447,3.605-8.051,8.051-8.051C47.732,80.077,51.338,83.681,51.338,88.128z"/>
								</g>
								<g>
									<path class="st205" d="M43.285,97.679c-5.267,0-9.551-4.284-9.551-9.551s4.284-9.551,9.551-9.551
										c5.268,0,9.553,4.284,9.553,9.551S48.553,97.679,43.285,97.679z M43.285,81.577c-3.612,0-6.551,2.938-6.551,6.551
										s2.938,6.551,6.551,6.551c3.613,0,6.553-2.938,6.553-6.551S46.898,81.577,43.285,81.577z"/>
								</g>
							</g>
							<g>
								<g>
									<circle class="st188" cx="39.282" cy="85.511" r="3.28"/>
								</g>
								<g>
									<path class="st205" d="M39.281,90.292c-2.636,0-4.779-2.145-4.779-4.781c0-2.636,2.144-4.779,4.779-4.779
										c2.637,0,4.781,2.144,4.781,4.779C44.062,88.147,41.918,90.292,39.281,90.292z M39.281,83.731
										c-0.981,0-1.779,0.798-1.779,1.779c0,0.982,0.798,1.781,1.779,1.781c0.982,0,1.781-0.799,1.781-1.781
										C41.062,84.529,40.264,83.731,39.281,83.731z"/>
								</g>
							</g>
						</g>
						<g>
							<g>
								<g>
									<path class="st69" d="M99.766,88.128c0,4.449-3.605,8.051-8.051,8.051c-4.447,0-8.053-3.602-8.053-8.051
										c0-4.447,3.605-8.051,8.053-8.051C96.16,80.077,99.766,83.681,99.766,88.128z"/>
								</g>
								<g>
									<path class="st205" d="M99.766,88.128c0,4.449-3.605,1.664-8.051,1.664c-4.447,0-8.053,2.785-8.053-1.664
										c0-4.447,3.605-8.051,8.053-8.051C96.16,80.077,99.766,83.681,99.766,88.128z"/>
								</g>
								<g>
									<path class="st205" d="M91.715,97.679c-5.268,0-9.553-4.284-9.553-9.551s4.285-9.551,9.553-9.551
										c5.267,0,9.551,4.284,9.551,9.551S96.981,97.679,91.715,97.679z M91.715,81.577c-3.613,0-6.553,2.938-6.553,6.551
										s2.939,6.551,6.553,6.551c3.612,0,6.551-2.938,6.551-6.551S95.327,81.577,91.715,81.577z"/>
								</g>
							</g>
							<g>
								<g>
									<circle class="st188" cx="87.71" cy="85.511" r="3.28"/>
								</g>
								<g>
									<path class="st205" d="M87.709,90.292c-2.636,0-4.779-2.145-4.779-4.781c0-2.636,2.144-4.779,4.779-4.779
										c2.637,0,4.781,2.144,4.781,4.779C92.49,88.147,90.346,90.292,87.709,90.292z M87.709,83.731
										c-0.981,0-1.779,0.798-1.779,1.779c0,0.982,0.798,1.781,1.779,1.781c0.982,0,1.781-0.799,1.781-1.781
										C89.49,84.529,88.691,83.731,87.709,83.731z"/>
								</g>
							</g>
						</g>
					</g>
				</g>
			</g>
		</g>
		<g>
			<g>
				<polygon class="st31" points="88.027,47.89 81.32,32.962 74.908,35.845 67.5,28.435 60.091,35.845 53.68,32.962 46.973,47.89 
					61.897,54.597 62.23,53.854 67.5,59.124 72.769,53.856 73.102,54.597 				"/>
			</g>
			<g>
				<polygon class="st221" points="74.908,48.345 67.5,40.937 60.091,48.345 53.68,45.464 51.646,49.989 61.897,54.597 
					62.23,53.854 67.5,59.124 72.769,53.856 73.102,54.597 83.354,49.989 81.32,45.464 				"/>
			</g>
			<g>
				<path class="st205" d="M88.028,49.39c-0.572,0-1.119-0.329-1.369-0.885l-6.092-13.56l-5.044,2.268
					c-0.567,0.256-1.235,0.132-1.676-0.308l-6.348-6.35l-6.349,6.35c-0.441,0.439-1.109,0.562-1.676,0.308l-5.043-2.268
					l-6.092,13.56c-0.34,0.755-1.226,1.095-1.983,0.753c-0.755-0.34-1.093-1.228-0.753-1.983l6.707-14.928
					c0.163-0.362,0.464-0.646,0.836-0.787c0.37-0.143,0.783-0.13,1.147,0.034l5.467,2.458l6.678-6.678
					c0.281-0.281,0.663-0.439,1.061-0.439l0,0c0.397,0,0.779,0.158,1.061,0.439l6.677,6.678l5.468-2.458
					c0.362-0.164,0.775-0.177,1.147-0.034c0.372,0.142,0.673,0.425,0.836,0.787l6.707,14.928c0.34,0.756,0.002,1.644-0.753,1.983
					C88.442,49.348,88.233,49.39,88.028,49.39z"/>
			</g>
		</g>
	</g>
</g>
</svg>
