<?xml version="1.0" encoding="utf-8"?>
<!-- Generator: Adobe Illustrator 16.0.0, SVG Export Plug-In . SVG Version: 6.00 Build 0)  -->
<!DOCTYPE svg PUBLIC "-//W3C//DTD SVG 1.1//EN" "http://www.w3.org/Graphics/SVG/1.1/DTD/svg11.dtd">
<svg version="1.1" id="Layer_1" xmlns="http://www.w3.org/2000/svg" xmlns:xlink="http://www.w3.org/1999/xlink" x="0px" y="0px"
	 width="135px" height="135px" viewBox="0 0 135 135" style="enable-background:new 0 0 135 135;" xml:space="preserve">
<style type="text/css">
<![CDATA[
	.st0{fill:#465652;}
	.st1{fill:#AAB9BA;}
	.st2{fill:#47C67B;}
	.st3{fill:#AAC8D1;}
	.st4{fill:none;stroke:#E83834;stroke-width:6;stroke-linecap:round;stroke-linejoin:round;stroke-miterlimit:10;}
	.st5{fill:#7BC67B;}
	.st6{fill:#7BC7FF;}
	.st7{fill:#7C34C1;}
	.st8{fill:#7C8D96;}
	.st9{fill:#AD2707;}
	.st10{fill:#ADB8BC;}
	.st11{fill:#107510;}
	.st12{fill:#7FE5D8;}
	.st13{fill:#AF4AD1;}
	.st14{fill:#E02B7E;}
	.st15{fill:#E04038;}
	.st16{fill:#AFD7DD;}
	.st17{fill:#E0A010;}
	.st18{fill:#E0D5A4;}
	.st19{fill:#12B2B2;}
	.st20{fill:#12D66B;}
	.st21{fill:#E1A9FF;}
	.st22{fill:#1362A8;}
	.st23{fill:#E2378D;}
	.st24{fill:#E29C37;}
	.st25{fill:#E2B90E;}
	.st26{fill:#E2BF91;}
	.st27{fill:#E2CBAA;}
	.st28{fill:#14A594;}
	.st29{fill:#E4E9ED;}
	.st30{fill:#4A5D60;}
	.st31{fill:#E5B076;}
	.st32{fill:#E5B1C4;}
	.st33{fill:#E5E4C3;}
	.st34{fill:#4B6466;}
	.st35{fill:#E6FF2E;}
	.st36{fill:#18AA67;}
	.st37{fill:#E86207;}
	.st38{fill:#E8A113;}
	.st39{fill:#E8B5A6;}
	.st40{fill:#E8E8ED;}
	.st41{fill:#4E5154;}
	.st42{fill:#E9F1F4;}
	.st43{fill:#4F4B48;}
	.st44{fill:#4F74E8;}
	.st45{fill:#808E93;}
	.st46{fill:#80949B;}
	.st47{fill:#80EDAC;}
	.st48{fill:#B122E0;}
	.st49{fill:#B2C4CC;}
	.st50{fill:#83D839;}
	.st51{fill:#B3C6C6;}
	.st52{fill:none;stroke:#33363A;stroke-width:3;stroke-linecap:round;stroke-linejoin:round;stroke-miterlimit:10;}
	.st53{fill:#1A8E1C;}
	.st54{fill:#1A93D6;}
	.st55{fill:#B50B0B;}
	.st56{fill:#1AD88F;}
	.st57{fill:#B5DAF4;}
	.st58{fill:#EA7B1F;}
	.st59{fill:#EA81BD;}
	.st60{fill:#87B8D6;}
	.st61{fill:#87C3F4;}
	.st62{fill:#EAC79D;}
	.st63{fill:#EADF11;}
	.st64{fill:#EAE4C5;}
	.st65{fill:#B78094;}
	.st66{fill:#8844D8;}
	.st67{fill:#EBF4F7;}
	.st68{fill:#893015;}
	.st69{fill:#89410B;}
	.st70{fill:#899BA3;}
	.st71{fill:#EDE3B9;}
	.st72{enable-background:new    ;}
	.st73{fill:#50FF9F;}
	.st74{fill:#EEDCF4;}
	.st75{fill:#EFA37D;}
	.st76{fill:#EFA3CC;}
	.st77{fill:#EFC99A;}
	.st78{fill:#54AF79;}
	.st79{fill:#BA503A;}
	.st80{fill:#BA8663;}
	.st81{fill:#8B4FE0;}
	.st82{fill:#58ED9B;}
	.st83{fill:#BC7DFF;}
	.st84{fill:#8D9AA3;}
	.st85{fill:#BCCAD3;}
	.st86{fill:#8DE4FF;}
	.st87{fill:#20B518;}
	.st88{fill:#BF44F2;}
	.st89{fill:#21CEA1;}
	.st90{fill:#BFDAE0;}
	.st91{fill:#F0FBFC;}
	.st92{fill:#F2D9A7;}
	.st93{fill:#F2EAC9;}
	.st94{fill:#24D1AF;}
	.st95{fill:#25931C;}
	.st96{fill:#F4C4B3;}
	.st97{fill:#F4D3A2;}
	.st98{fill:#F4D647;}
	.st99{fill:#F4D7B8;}
	.st100{fill:#F4EC8E;}
	.st101{fill:#5B524D;}
	.st102{fill:#F77819;}
	.st103{fill:#F79AE1;}
	.st104{fill:#5E707A;}
	.st105{fill:#F93585;}
	.st106{fill:#F95D5D;}
	.st107{fill:#F9C19B;}
	.st108{fill:#F9CB58;}
	.st109{fill:#F9D2B2;}
	.st110{fill:#F9F07D;}
	.st111{fill:#F9F1D2;}
	.st112{fill:#F9F4B7;}
	.st113{fill:#F9F9E4;}
	.st114{fill:#5F1DAA;}
	.st115{fill:#5F9AD6;}
	.st116{fill:#C0C0C4;}
	.st117{fill:#91EA57;}
	.st118{fill:#C12727;}
	.st119{fill:#C191A0;}
	.st120{fill:#923BB7;}
	.st121{fill:#93A0A3;}
	.st122{fill:#93F9EA;}
	.st123{fill:#93FF5A;}
	.st124{fill:#C4833D;}
	.st125{fill:#95A2A5;}
	.st126{fill:#965514;}
	.st127{fill:#96562C;}
	.st128{fill:#2AF42F;}
	.st129{fill:#C5D7DD;}
	.st130{fill:#C68510;}
	.st131{fill:#C6A86D;}
	.st132{fill:#C6BB8D;}
	.st133{fill:#2C9DCE;}
	.st134{fill:#FBFCF2;}
	.st135{fill:#FC70B0;}
	.st136{fill:#FCE6C8;}
	.st137{fill:#FCF7E3;}
	.st138{fill:#C90D6B;}
	.st139{fill:#FDFEFF;}
	.st140{fill:#FDFFDC;}
	.st141{fill:#FF1A1A;}
	.st142{fill:#FF5252;}
	.st143{fill:#FF5B00;}
	.st144{fill:#FF6155;}
	.st145{fill:#FF630D;}
	.st146{fill:#FF6666;}
	.st147{fill:#FF7676;}
	.st148{fill:#FF7900;}
	.st149{fill:#FF860D;}
	.st150{fill:#FF8B00;}
	.st151{fill:#FF8F8F;}
	.st152{fill:#FF900B;}
	.st153{fill:#FF908A;}
	.st154{fill:#FF960B;}
	.st155{fill:#FF9C0D;}
	.st156{fill:#FFA9D4;}
	.st157{fill:#FFAA00;}
	.st158{fill:#FFAD40;}
	.st159{fill:#FFAF10;}
	.st160{fill:#FFB000;}
	.st161{fill:#FFBE08;}
	.st162{fill:#FFBF31;}
	.st163{fill:#FFC200;}
	.st164{fill:#FFCAE8;}
	.st165{fill:#FFCCF5;}
	.st166{fill:#FFD00B;}
	.st167{fill:#FFD039;}
	.st168{fill:#FFD400;}
	.st169{fill:#FFD833;}
	.st170{fill:#FFDB80;}
	.st171{fill:#FFDDD2;}
	.st172{fill:#FFE6D4;}
	.st173{fill:#FFE6EB;}
	.st174{fill:#FFE98D;}
	.st175{fill:#FFECD2;}
	.st176{fill:#FFF1D9;}
	.st177{fill:#FFF24D;}
	.st178{fill:#FFF3C2;}
	.st179{fill:#FFF4C7;}
	.st180{fill:#FFF800;}
	.st181{fill:#FFF80D;}
	.st182{fill:#FFF9DE;}
	.st183{fill:#FFFBD7;}
	.st184{fill:#FFFBEB;}
	.st185{fill:#FFFCC0;}
	.st186{fill:#FFFCDC;}
	.st187{fill:#FFFFFA;}
	.st188{fill:#FFFFFF;}
	.st189{fill:#63797F;}
	.st190{fill:#65E529;}
	.st191{fill:#66310E;}
	.st192{fill:#663C17;}
	.st193{fill:#9A5AE5;}
	.st194{fill:#CA30EF;}
	.st195{fill:#6892FC;}
	.st196{fill:#9CFFC4;}
	.st197{fill:#CC4306;}
	.st198{fill:#CC549E;}
	.st199{fill:#9E3256;}
	.st200{fill:#CDFFBB;}
	.st201{fill:#CE86AF;}
	.st202{fill:#CED9DD;}
	
		.st203{fill:none;stroke:#33363A;stroke-width:3;stroke-linecap:round;stroke-linejoin:round;stroke-miterlimit:10;stroke-dasharray:6;}
	.st204{fill:#CFE1E2;}
	.st205{fill:#33363A;}
	.st206{fill:#34C166;}
	.st207{fill:#364B5B;}
	.st208{fill:#3662CE;}
	.st209{fill:#36C6FF;}
	.st210{fill:#6ADB9A;}
	.st211{fill:#6D5C4D;}
	.st212{fill:#6EBDF9;}
	.st213{fill:#0031FF;}
	.st214{fill:#0062FF;}
	.st215{fill:#0068FF;}
	.st216{fill:#0086FF;}
	.st217{fill:#009BE8;}
	.st218{fill:#00AAFF;}
	.st219{fill:#D271FF;}
	.st220{fill:#D363A9;}
	.st221{fill:#D3964C;}
	.st222{fill:#D3DFE2;}
	.st223{fill:#D3E0E2;}
	.st224{fill:#D3EFF4;}
	.st225{fill:#063B66;}
	.st226{fill:#D60909;}
	.st227{fill:#D61D1D;}
	.st228{fill:#D7F0FF;}
	.st229{fill:#09B285;}
	.st230{fill:#D8D593;}
	.st231{fill:#D8E2EA;}
	.st232{fill:#D8E5EA;}
	.st233{fill:#3E5054;}
	.st234{fill:#D988FF;}
	.st235{fill:#D9E7E8;}
	.st236{fill:#702252;}
	.st237{fill:#70D3E0;}
	.st238{fill:#A02FF2;}
	.st239{fill:#A2F255;}
	.st240{fill:#A35616;}
	.st241{fill:#A3CCCC;}
	.st242{fill:#0A6ADD;}
	.st243{fill:#A5145D;}
	.st244{fill:#A57555;}
	.st245{fill:#77D6FC;}
	.st246{fill:#7815CE;}
	.st247{fill:#A7BBC1;}
	.st248{fill:#DBD279;}
	.st249{fill:#0D5C9E;}
	.st250{fill:#A83C11;}
	.st251{fill:#A8633D;}
	.st252{fill:#A8A3E5;}
	.st253{fill:#DCE6EA;}
	.st254{fill:#DCE7EA;}
	.st255{fill:#A962E8;}
	.st256{fill:#DD2466;}
	.st257{fill:#DDC38A;}
	.st258{fill:#DDD2B1;}
	.st259{fill:#DFE7E8;}
	.st260{fill:#42B1E8;}
	.st261{fill:#436377;}
	.st262{fill:#43B530;}
]]>
</style>
<g>
	<g>
		<g>
			<g>
				<path class="st262" d="M116.247,41.972c18.363,18.363,18.365,35.658,0.002,54.021c-18.365,18.367-79.133,18.365-97.496,0
					c-18.363-18.363-18.365-35.658,0-54.021C67.3-6.577,67.7-6.577,116.247,41.972z"/>
			</g>
			<g>
				<path class="st11" d="M18.753,48.597C10.708,56.64,6.188,64.479,5.192,72.294c0.996,7.814,5.516,15.654,13.561,23.699
					c18.363,18.365,79.131,18.367,97.496,0c8.043-8.043,12.562-15.883,13.559-23.697c-0.996-7.814-5.516-15.654-13.561-23.699
					C67.7,0.048,67.3,0.048,18.753,48.597z"/>
			</g>
			<g>
				<path class="st53" d="M18.753,48.597c-5.006,5.004-8.645,9.93-10.92,14.818c2.275,4.891,5.915,9.816,10.92,14.82
					c18.363,18.365,79.131,18.367,97.496,0c5.004-5.004,8.643-9.93,10.919-14.818c-2.276-4.891-5.916-9.816-10.921-14.82
					C67.7,0.048,67.3,0.048,18.753,48.597z"/>
			</g>
			<g>
				<path class="st205" d="M67.502,111.268c-21.957,0-41.043-5.446-49.81-14.214C8.129,87.49,3.48,78.309,3.48,68.982
					c0-9.326,4.648-18.509,14.212-28.071C42.227,16.375,54.542,4.061,67.5,4.061s25.273,12.314,49.808,36.851
					c18.89,18.89,18.891,37.254,0.002,56.143C108.543,105.821,89.458,111.268,67.502,111.268z M67.5,7.061
					c-11.242,0-22.743,11.027-47.687,35.972c-8.973,8.972-13.334,17.46-13.333,25.95c0,8.489,4.361,16.978,13.333,25.95
					c8.225,8.226,26.498,13.335,47.688,13.335c21.189,0,39.462-5.109,47.687-13.335c17.704-17.704,17.703-34.195-0.002-51.9
					C90.243,18.088,78.742,7.061,67.5,7.061z"/>
			</g>
		</g>
		<g>
			<g>
				<path class="st262" d="M90.324,41.972c8.599,18.363,8.599,35.658,0.001,54.021c-8.599,18.367-37.051,18.365-45.648,0
					c-8.599-18.363-8.6-35.658-0.001-54.021C67.407-6.577,67.594-6.577,90.324,41.972z"/>
			</g>
			<g>
				<path class="st53" d="M47.176,48.597c-3.767,8.043-8.383,15.883-8.849,23.697c0.466,7.814,2.582,15.654,6.35,23.699
					c8.598,18.365,37.05,18.367,45.648,0c3.766-8.043,5.883-15.883,6.349-23.697c-0.466-7.814-5.083-15.654-8.85-23.699
					C65.094,0.048,69.907,0.048,47.176,48.597z"/>
			</g>
			<g>
				<path class="st205" d="M67.501,111.268c-10.689,0-19.956-5.609-24.183-14.639c-8.833-18.862-8.833-36.433-0.001-55.293
					C55.301,15.741,60.771,4.061,67.5,4.061S79.7,15.741,91.683,41.336c8.832,18.861,8.833,36.431,0.001,55.293
					C87.457,105.658,78.19,111.268,67.501,111.268z M67.5,7.061c-4.822,0-11.087,13.38-21.466,35.547
					c-8.425,17.993-8.425,34.755,0.001,52.75c3.728,7.963,11.954,12.91,21.466,12.91c9.512,0,17.737-4.947,21.465-12.91
					c8.425-17.994,8.424-34.756-0.001-52.75C78.587,20.44,72.322,7.061,67.5,7.061z"/>
			</g>
		</g>
		<g>
			<g>
				<g>
					<g>
						<path class="st47" d="M116.709,91.999c0,20.676-22.032,37.441-49.209,37.441c-27.178,0-49.209-16.766-49.209-37.441
							c0-20.68,22.031-45.459,49.209-45.459C94.677,46.54,116.709,71.319,116.709,91.999z"/>
					</g>
					<g>
						<path class="st210" d="M116.709,91.999c0,20.676-22.032,37.441-49.209,37.441c-27.178,0-49.209-16.766-49.209-37.441
							c0-20.68,22.031-34.928,49.209-34.928C94.677,57.071,116.709,71.319,116.709,91.999z"/>
					</g>
					<g>
						<path class="st47" d="M77.937,95.073c0,1.393-4.691,1.643-10.479,1.643s-10.479-0.25-10.479-1.643
							c0-1.395,4.691-5.037,10.479-5.037S77.937,93.679,77.937,95.073z"/>
					</g>
					<g>
						<path class="st2" d="M116.709,91.999c0,20.676-22.032,37.441-49.209,37.441c-27.178,0-49.209-16.766-49.209-37.441
							c0-20.682,6.261,18.34,49.209,18.34S116.709,71.317,116.709,91.999z"/>
					</g>
					<g>
						<path class="st79" d="M81.083,106.562c0,3.893-6.082,7.047-13.583,7.047s-13.583-3.154-13.583-7.047"/>
					</g>
					<g>
						<path class="st205" d="M67.5,115.108c-8.458,0-15.083-3.754-15.083-8.547c0-0.828,0.671-1.5,1.5-1.5s1.5,0.672,1.5,1.5
							c0,2.624,4.962,5.547,12.083,5.547s12.083-2.923,12.083-5.547c0-0.828,0.671-1.5,1.5-1.5s1.5,0.672,1.5,1.5
							C82.583,111.354,75.958,115.108,67.5,115.108z"/>
					</g>
					<g>
						<path class="st205" d="M67.5,130.94c-27.961,0-50.709-17.469-50.709-38.941c0-21.27,22.62-46.959,50.709-46.959
							c13.041,0,25.772,5.472,35.849,15.406c9.305,9.174,14.86,20.97,14.86,31.553C118.209,113.472,95.461,130.94,67.5,130.94z
							 M67.5,48.04c-26.428,0-47.709,24.048-47.709,43.959c0,19.818,21.402,35.941,47.709,35.941s47.709-16.123,47.709-35.941
							C115.209,72.088,93.928,48.04,67.5,48.04z"/>
					</g>
				</g>
				<g>
					<g>
						<g>
							<g>
								<g>
									<path class="st9" d="M51.338,88.155c0,4.449-3.605,8.051-8.052,8.051c-4.447,0-8.051-3.602-8.051-8.051
										c0-4.447,3.604-8.051,8.051-8.051C47.732,80.104,51.338,83.708,51.338,88.155z"/>
								</g>
								<g>
									<path class="st205" d="M51.338,88.155c0,4.449-3.605,1.664-8.052,1.664c-4.447,0-8.051,2.785-8.051-1.664
										c0-4.447,3.604-8.051,8.051-8.051C47.732,80.104,51.338,83.708,51.338,88.155z"/>
								</g>
								<g>
									<path class="st205" d="M43.286,97.706c-5.266,0-9.551-4.284-9.551-9.551s4.285-9.551,9.551-9.551
										c5.267,0,9.552,4.284,9.552,9.551S48.553,97.706,43.286,97.706z M43.286,81.604c-3.612,0-6.551,2.938-6.551,6.551
										s2.938,6.551,6.551,6.551c3.613,0,6.552-2.938,6.552-6.551S46.899,81.604,43.286,81.604z"/>
								</g>
							</g>
							<g>
								<g>
									<circle class="st188" cx="39.282" cy="85.538" r="3.281"/>
								</g>
								<g>
									<path class="st205" d="M39.281,90.319c-2.636,0-4.78-2.145-4.78-4.781c0-2.636,2.145-4.779,4.78-4.779
										c2.636,0,4.781,2.144,4.781,4.779C44.062,88.175,41.917,90.319,39.281,90.319z M39.281,83.759
										c-0.981,0-1.78,0.798-1.78,1.779c0,0.982,0.799,1.781,1.78,1.781c0.982,0,1.781-0.799,1.781-1.781
										C41.062,84.557,40.264,83.759,39.281,83.759z"/>
								</g>
							</g>
						</g>
						<g>
							<g>
								<g>
									<path class="st9" d="M99.765,88.155c0,4.449-3.604,8.051-8.051,8.051c-4.447,0-8.052-3.602-8.052-8.051
										c0-4.447,3.604-8.051,8.052-8.051C96.16,80.104,99.765,83.708,99.765,88.155z"/>
								</g>
								<g>
									<path class="st205" d="M99.765,88.155c0,4.449-3.604,1.664-8.051,1.664c-4.447,0-8.052,2.785-8.052-1.664
										c0-4.447,3.604-8.051,8.052-8.051C96.16,80.104,99.765,83.708,99.765,88.155z"/>
								</g>
								<g>
									<path class="st205" d="M91.714,97.706c-5.267,0-9.552-4.284-9.552-9.551s4.285-9.551,9.552-9.551
										c5.266,0,9.551,4.284,9.551,9.551S96.98,97.706,91.714,97.706z M91.714,81.604c-3.613,0-6.552,2.938-6.552,6.551
										s2.939,6.551,6.552,6.551c3.612,0,6.551-2.938,6.551-6.551S95.326,81.604,91.714,81.604z"/>
								</g>
							</g>
							<g>
								<g>
									<circle class="st188" cx="87.709" cy="85.538" r="3.28"/>
								</g>
								<g>
									<path class="st205" d="M87.71,90.319c-2.636,0-4.781-2.145-4.781-4.781c0-2.636,2.145-4.779,4.781-4.779
										c2.635,0,4.779,2.144,4.779,4.779C92.489,88.175,90.345,90.319,87.71,90.319z M87.71,83.759
										c-0.982,0-1.781,0.798-1.781,1.779c0,0.982,0.799,1.781,1.781,1.781c0.981,0,1.779-0.799,1.779-1.781
										C89.489,84.557,88.691,83.759,87.71,83.759z"/>
								</g>
							</g>
						</g>
					</g>
				</g>
				<g>
					<g>
						<path class="st205" d="M65.979,109.88c-0.226-0.901-2.8-3.211-11.883-3.062c-13.738,0.222-18.003-8.107-18.176-8.462
							c-0.364-0.744-0.056-1.643,0.688-2.007c0.741-0.361,1.637-0.058,2.003,0.681c0.154,0.304,3.677,7.011,15.437,6.788
							c1.473-0.016,14.381-0.062,14.904,5.688l-2.987,0.271C65.964,109.777,65.962,109.814,65.979,109.88z"/>
					</g>
					<g>
						<path class="st205" d="M69.021,109.88c0.016-0.065,0.014-0.103,0.014-0.103l-2.987-0.271
							c0.523-5.752,13.439-5.705,14.905-5.688c11.875,0.225,15.398-6.71,15.432-6.78c0.364-0.745,1.262-1.052,2.007-0.688
							c0.744,0.364,1.052,1.263,0.688,2.007c-0.174,0.354-4.414,8.66-18.175,8.462C71.841,106.646,69.247,108.979,69.021,109.88z"/>
					</g>
				</g>
				<g>
					<g>
						<path class="st205" d="M65.033,101.696c-0.398,0-0.796-0.157-1.091-0.47l-1.5-1.588c-0.569-0.603-0.542-1.552,0.06-2.121
							c0.603-0.568,1.552-0.542,2.121,0.061l1.5,1.588c0.569,0.603,0.542,1.552-0.06,2.121
							C65.772,101.561,65.402,101.696,65.033,101.696z"/>
					</g>
					<g>
						<path class="st205" d="M69.967,101.696c-0.37,0-0.74-0.136-1.03-0.409c-0.602-0.569-0.629-1.519-0.06-2.121l1.5-1.588
							c0.569-0.602,1.518-0.628,2.121-0.061c0.602,0.569,0.629,1.519,0.06,2.121l-1.5,1.588
							C70.763,101.539,70.366,101.696,69.967,101.696z"/>
					</g>
				</g>
			</g>
		</g>
		<g>
			<g>
				<g>
					<path class="st196" d="M37.03,60.724c2.6-1.83,5.369-3.064,8.057-3.723c0.418-2.48,0.033-4.844-1.305-6.744
						c-2.901-4.123-9.328-4.807-15.596-2.104c-4.662,4.988-6.188,11.27-3.287,15.391c1.338,1.902,3.432,3.062,5.909,3.506
						C32.335,64.741,34.432,62.552,37.03,60.724z"/>
				</g>
				<g>
					<path class="st47" d="M40.198,52.925c-2.596-3.689-8.016-4.617-13.618-2.836c-3.368,4.598-4.216,9.852-1.681,13.455
						c1.112,1.582,2.751,2.643,4.693,3.213c1.126-1.205,2.656-0.191,4.107-1.213c0.425-0.299,0.607-2.711,1.041-2.979
						c0.718-0.641,1.469-1.264,2.289-1.842c1.499-1.055,3.055-1.889,4.618-2.551C41.716,56.247,41.265,54.437,40.198,52.925z"/>
				</g>
				<g>
					<path class="st205" d="M30.811,68.55c-0.088,0-0.177-0.008-0.266-0.023c-2.975-0.532-5.351-1.957-6.872-4.119
						c-3.271-4.647-1.897-11.591,3.418-17.278c0.141-0.15,0.312-0.271,0.501-0.353c7.148-3.083,14.146-2.03,17.417,2.617
						c1.521,2.16,2.06,4.877,1.557,7.856c-0.137,0.816-0.916,1.36-1.728,1.23c-0.817-0.138-1.368-0.912-1.23-1.729
						c0.368-2.184,0.004-4.131-1.052-5.632c-2.354-3.344-7.867-4.032-13.486-1.712c-4.083,4.506-5.297,9.929-2.944,13.272
						c1.057,1.502,2.767,2.503,4.947,2.893c0.815,0.146,1.358,0.926,1.212,1.741C32.155,68.04,31.523,68.55,30.811,68.55z"/>
				</g>
			</g>
			<g>
				<g>
					<path class="st196" d="M97.97,60.724c-2.601-1.83-5.369-3.064-8.057-3.723c-0.419-2.48-0.034-4.844,1.305-6.744
						c2.9-4.123,9.328-4.807,15.596-2.104c4.661,4.988,6.188,11.27,3.287,15.391c-1.339,1.902-3.432,3.062-5.91,3.506
						C102.665,64.741,100.567,62.552,97.97,60.724z"/>
				</g>
				<g>
					<path class="st47" d="M94.802,52.925c2.596-3.689,8.016-4.617,13.617-2.836c3.369,4.598,4.217,9.852,1.682,13.455
						c-1.113,1.582-2.752,2.643-4.693,3.213c-1.127-1.205-2.656-0.191-4.107-1.213c-0.426-0.299-0.607-2.711-1.041-2.979
						c-0.719-0.641-1.469-1.264-2.289-1.842c-1.5-1.055-3.055-1.889-4.619-2.551C93.284,56.247,93.735,54.437,94.802,52.925z"/>
				</g>
				<g>
					<path class="st205" d="M104.188,68.55c-0.712,0-1.345-0.51-1.475-1.236c-0.146-0.815,0.397-1.595,1.212-1.74
						c2.179-0.39,3.89-1.39,4.948-2.893c2.353-3.343,1.138-8.767-2.944-13.272c-5.619-2.32-11.133-1.633-13.485,1.712
						c-1.058,1.501-1.421,3.447-1.053,5.631c0.138,0.817-0.412,1.591-1.229,1.729c-0.817,0.13-1.591-0.413-1.729-1.229
						c-0.503-2.98,0.035-5.697,1.558-7.858c3.269-4.646,10.269-5.698,17.416-2.616c0.189,0.081,0.36,0.202,0.502,0.353
						c5.314,5.688,6.688,12.632,3.417,17.278c-1.522,2.163-3.898,3.587-6.873,4.119C104.365,68.542,104.276,68.55,104.188,68.55z"/>
				</g>
			</g>
		</g>
		<g>
			<path class="st2" d="M61.036,72.509c-4.187,0-7.581-3.395-7.581-7.582c0-4.186,5.278-5.697,9.465-5.697s5.697,1.512,5.697,5.697
				C68.617,69.114,65.223,72.509,61.036,72.509z"/>
		</g>
		<g>
			<circle class="st2" cx="76.027" cy="69.841" r="2.667"/>
		</g>
		<g>
			<circle class="st2" cx="86.415" cy="67.856" r="1.986"/>
		</g>
		<g>
			<circle class="st2" cx="72.776" cy="84.097" r="1.308"/>
		</g>
		<g>
			<circle class="st2" cx="49.861" cy="70.356" r="2.501"/>
		</g>
	</g>
	<g>
		<g>
			<g>
				<polyline class="st188" points="45.264,104.989 40.21,107.964 39.853,102.112 				"/>
			</g>
			<g>
				<path class="st205" d="M40.21,109.464c-0.242,0-0.484-0.059-0.705-0.176c-0.46-0.245-0.761-0.712-0.792-1.232l-0.357-5.852
					c-0.051-0.827,0.579-1.538,1.406-1.589c0.821-0.058,1.539,0.579,1.588,1.405l0.208,3.409l2.945-1.733
					c0.713-0.421,1.633-0.183,2.053,0.532c0.42,0.714,0.182,1.633-0.532,2.054l-5.054,2.975
					C40.736,109.395,40.473,109.464,40.21,109.464z"/>
			</g>
		</g>
		<g>
			<g>
				<polyline class="st188" points="89.736,104.989 94.79,107.964 95.147,102.112 				"/>
			</g>
			<g>
				<path class="st205" d="M94.79,109.464c-0.263,0-0.526-0.069-0.761-0.207l-5.054-2.975c-0.714-0.421-0.952-1.34-0.532-2.054
					c0.419-0.714,1.34-0.952,2.053-0.532l2.945,1.733l0.208-3.409c0.05-0.825,0.775-1.463,1.588-1.405
					c0.827,0.051,1.457,0.762,1.406,1.589l-0.357,5.852c-0.032,0.521-0.332,0.987-0.792,1.232
					C95.274,109.405,95.032,109.464,94.79,109.464z"/>
			</g>
		</g>
	</g>
</g>
</svg>
